<svg width="690" height="136" viewBox="0 0 690 136" fill="none" xmlns="http://www.w3.org/2000/svg">
<path d="M138.058 67.7933H112.058" stroke="#EDF2F4" stroke-width="2.61751"></path>
<path d="M96.7607 34.3797L77.6809 67.6998L96.0066 100.398L115.209 67.8049L96.7607 34.3797Z" fill="url(#paint0_linear_313_176)"></path>
<path d="M75.4385 68.999L105.511 122.691H46.6084L60.5723 98.1309L58.2969 96.8379L44.3525 121.362L14.2617 68.999H75.4385ZM138.489 67.6934L107.756 121.345L77.709 67.6963L107.924 14.9238L138.489 67.6934ZM105.833 13.3086L75.4463 66.3809H14.2744L44.3301 14.6553L57.6982 38.876L58.8447 38.2432L59.9902 37.6113L46.5762 13.3086H105.833Z" stroke="#EDF2F4" stroke-width="2.61751"></path>
<path d="M75.4531 69.0005L38.2722 69.0004L57.5 100.723L93.271 100.796L75.4531 69.0005Z" fill="url(#paint1_linear_313_176)"></path>
<path d="M75.4894 66.4077H38.4434L57.6517 34.2257H93.8632L75.4894 66.4077Z" fill="url(#paint2_linear_313_176)"></path>
<g clip-path="url(#clip0_313_176)">
<path d="M660.966 83.427V52.573H677.655V55.0413H663.596V66.5014H675.758V68.9256H663.596V80.9587H678V83.427H660.966Z" fill="#EDF2F4"></path>
<path d="M617.677 84C611.639 84 607.068 80.1212 607.068 74.3912H609.698C609.698 78.4463 612.847 81.4876 617.763 81.4876C622.334 81.4876 625.266 79.0634 625.266 75.5813C625.266 65.4876 608.103 72.011 608.103 60.022C608.103 55.6584 611.639 52 617.547 52C622.118 52 627.293 54.5565 627.293 60.8154H624.576C624.576 56.7163 621.687 54.4683 617.504 54.4683C613.019 54.4683 610.733 57.0689 610.733 60.022C610.733 69.0138 627.94 63.1515 627.94 75.405C627.94 80.1653 624.231 84 617.677 84Z" fill="#EDF2F4"></path>
<path d="M556.743 83.427V52.573H566.661C572.613 52.573 576.278 56.0992 576.278 61.5207C576.278 66.1488 573.389 69.4545 569.68 70.3802L577.054 83.427H573.949L566.92 70.6446H559.373V83.427H556.743ZM559.373 68.2204H566.661C570.629 68.2204 573.518 65.8402 573.518 61.5207C573.518 57.73 571.017 54.9972 566.532 54.9972H559.373V68.2204Z" fill="#EDF2F4"></path>
<path d="M506.568 83.427V52.573H523.258V55.0413H509.199V66.5014H521.36V68.9256H509.199V80.9587H523.603V83.427H506.568Z" fill="#EDF2F4"></path>
<path d="M460.07 83.427L448.728 52.573H451.575L461.493 80.4738H461.752L471.843 52.573H474.819L463.304 83.427H460.07Z" fill="#EDF2F4"></path>
<path d="M399.481 83.427V52.573H409.4C415.351 52.573 419.017 56.0992 419.017 61.5207C419.017 66.1488 416.128 69.4545 412.419 70.3802L419.793 83.427H416.688L409.659 70.6446H402.112V83.427H399.481ZM402.112 68.2204H409.4C413.368 68.2204 416.257 65.8402 416.257 61.5207C416.257 57.73 413.756 54.9972 409.271 54.9972H402.112V68.2204Z" fill="#EDF2F4"></path>
<path d="M349.307 83.427V52.573H365.996V55.0413H351.937V66.5014H364.099V68.9256H351.937V80.9587H366.341V83.427H349.307Z" fill="#EDF2F4"></path>
<path d="M302.809 83.427L291.467 52.573H294.313L304.232 80.4738H304.491L314.582 52.573H317.557L306.043 83.427H302.809Z" fill="#EDF2F4"></path>
<path d="M246.652 84C237.725 84 231.17 77.124 231.17 68C231.17 58.9642 237.768 52 246.652 52C255.622 52 262.177 59.0523 262.177 68C262.177 77.0358 255.579 84 246.652 84ZM246.652 81.4435C254.026 81.4435 259.417 75.7576 259.417 68C259.417 60.3747 254.026 54.5565 246.652 54.5565C239.321 54.5565 233.887 60.3747 233.887 68C233.887 75.7576 239.321 81.4435 246.652 81.4435Z" fill="#EDF2F4"></path>
<path d="M176 83.427V52.573H178.631V66.4573H195.622V52.573H198.252V83.427H195.622V68.9697H178.631V83.427H176Z" fill="#EDF2F4"></path>
</g>
<defs>
<linearGradient id="paint0_linear_313_176" x1="77.6809" y1="67.3886" x2="111.904" y2="79.184" gradientUnits="userSpaceOnUse">
<stop stop-color="#69F09B"></stop>
<stop offset="1" stop-color="#3A8656"></stop>
</linearGradient>
<linearGradient id="paint1_linear_313_176" x1="75.2114" y1="69.0004" x2="62.864" y2="102.986" gradientUnits="userSpaceOnUse">
<stop stop-color="#69F09B"></stop>
<stop offset="1" stop-color="#3A8656"></stop>
</linearGradient>
<linearGradient id="paint2_linear_313_176" x1="76.5983" y1="66.4077" x2="52.8688" y2="38.6213" gradientUnits="userSpaceOnUse">
<stop stop-color="#69F09B"></stop>
<stop offset="1" stop-color="#3A8656"></stop>
</linearGradient>
<clipPath id="clip0_313_176">
<rect width="502" height="32" fill="white" transform="translate(176 52)"></rect>
</clipPath>
</defs>
</svg>