<svg width="502" height="32" viewBox="0 0 502 32" fill="none" xmlns="http://www.w3.org/2000/svg">
<g clip-path="url(#clip0_340_625)">
<path d="M484.966 31.427V0.572998H501.655V3.04132H487.596V14.5014H499.758V16.9256H487.596V28.9587H502V31.427H484.966Z" fill="#090909"></path>
<path d="M441.677 32C435.64 32 431.068 28.1212 431.068 22.3912H433.699C433.699 26.4463 436.847 29.4876 441.763 29.4876C446.334 29.4876 449.267 27.0634 449.267 23.5813C449.267 13.4876 432.103 20.011 432.103 8.02204C432.103 3.6584 435.64 0 441.548 0C446.119 0 451.294 2.55647 451.294 8.81543H448.577C448.577 4.71625 445.688 2.46832 441.505 2.46832C437.02 2.46832 434.734 5.06887 434.734 8.02204C434.734 17.0138 451.941 11.1515 451.941 23.405C451.941 28.1653 448.232 32 441.677 32Z" fill="#090909"></path>
<path d="M380.742 31.427V0.572998H390.661C396.612 0.572998 400.278 4.09917 400.278 9.52066C400.278 14.1488 397.388 17.4545 393.68 18.3802L401.054 31.427H397.949L390.92 18.6446H383.373V31.427H380.742ZM383.373 16.2204H390.661C394.628 16.2204 397.518 13.8402 397.518 9.52066C397.518 5.73002 395.016 2.99724 390.531 2.99724H383.373V16.2204Z" fill="#090909"></path>
<path d="M330.568 31.427V0.572998H347.258V3.04132H333.199V14.5014H345.36V16.9256H333.199V28.9587H347.603V31.427H330.568Z" fill="#090909"></path>
<path d="M284.07 31.427L272.729 0.572998H275.575L285.493 28.4738H285.752L295.843 0.572998H298.819L287.305 31.427H284.07Z" fill="#090909"></path>
<path d="M223.481 31.427V0.572998H233.4C239.351 0.572998 243.017 4.09917 243.017 9.52066C243.017 14.1488 240.128 17.4545 236.419 18.3802L243.793 31.427H240.688L233.659 18.6446H226.112V31.427H223.481ZM226.112 16.2204H233.4C237.368 16.2204 240.257 13.8402 240.257 9.52066C240.257 5.73002 237.756 2.99724 233.271 2.99724H226.112V16.2204Z" fill="#090909"></path>
<path d="M173.307 31.427V0.572998H189.996V3.04132H175.937V14.5014H188.098V16.9256H175.937V28.9587H190.341V31.427H173.307Z" fill="#090909"></path>
<path d="M126.809 31.427L115.467 0.572998H118.313L128.232 28.4738H128.49L138.582 0.572998H141.557L130.043 31.427H126.809Z" fill="#090909"></path>
<path d="M70.6516 32C61.7248 32 55.1699 25.124 55.1699 16C55.1699 6.96419 61.768 0 70.6516 0C79.6215 0 86.1765 7.05234 86.1765 16C86.1765 25.0358 79.5784 32 70.6516 32ZM70.6516 29.4435C78.0259 29.4435 83.4165 23.7576 83.4165 16C83.4165 8.37466 78.0259 2.55647 70.6516 2.55647C63.3205 2.55647 57.8868 8.37466 57.8868 16C57.8868 23.7576 63.3205 29.4435 70.6516 29.4435Z" fill="#090909"></path>
<path d="M0 31.427V0.572998H2.6306V14.4573H19.6217V0.572998H22.2523V31.427H19.6217V16.9697H2.6306V31.427H0Z" fill="#090909"></path>
</g>
<defs>
<clipPath id="clip0_340_625">
<rect width="502" height="32" fill="white"></rect>
</clipPath>
</defs>
</svg>